<mxfile host="app.diagrams.net" modified="2022-07-22T12:58:05.698Z" agent="5.0 (X11)" etag="xM3A0A0HSZg1-Y3x0RYR" version="17.1.2" type="github">
  <diagram id="cemEOPEwzhkHVOBs_SCh" name="Page-1">
    <mxGraphModel dx="450" dy="290" grid="1" gridSize="10" guides="1" tooltips="1" connect="1" arrows="1" fold="1" page="1" pageScale="1" pageWidth="850" pageHeight="1100" math="0" shadow="0">
      <root>
        <mxCell id="0" />
        <mxCell id="1" parent="0" />
        <mxCell id="dWs-uhoI-c1moSIp1UjA-5" value="" style="edgeStyle=orthogonalEdgeStyle;rounded=0;orthogonalLoop=1;jettySize=auto;html=1;" edge="1" parent="1" source="dWs-uhoI-c1moSIp1UjA-1" target="dWs-uhoI-c1moSIp1UjA-4">
          <mxGeometry relative="1" as="geometry" />
        </mxCell>
        <mxCell id="dWs-uhoI-c1moSIp1UjA-1" value="" style="rounded=1;whiteSpace=wrap;html=1;" vertex="1" parent="1">
          <mxGeometry x="360" y="420" width="120" height="60" as="geometry" />
        </mxCell>
        <mxCell id="dWs-uhoI-c1moSIp1UjA-3" value="" style="edgeStyle=orthogonalEdgeStyle;rounded=0;orthogonalLoop=1;jettySize=auto;html=1;" edge="1" parent="1" source="dWs-uhoI-c1moSIp1UjA-2" target="dWs-uhoI-c1moSIp1UjA-1">
          <mxGeometry relative="1" as="geometry" />
        </mxCell>
        <mxCell id="dWs-uhoI-c1moSIp1UjA-2" value="X" style="text;html=1;strokeColor=none;fillColor=none;align=center;verticalAlign=middle;whiteSpace=wrap;rounded=0;" vertex="1" parent="1">
          <mxGeometry x="264" y="435" width="60" height="30" as="geometry" />
        </mxCell>
        <mxCell id="dWs-uhoI-c1moSIp1UjA-4" value="Y" style="text;html=1;strokeColor=none;fillColor=none;align=center;verticalAlign=middle;whiteSpace=wrap;rounded=0;" vertex="1" parent="1">
          <mxGeometry x="514" y="435" width="60" height="30" as="geometry" />
        </mxCell>
        <mxCell id="dWs-uhoI-c1moSIp1UjA-16" style="edgeStyle=orthogonalEdgeStyle;rounded=0;orthogonalLoop=1;jettySize=auto;html=1;entryX=0.5;entryY=0;entryDx=0;entryDy=0;entryPerimeter=0;" edge="1" parent="1" source="dWs-uhoI-c1moSIp1UjA-6" target="dWs-uhoI-c1moSIp1UjA-10">
          <mxGeometry relative="1" as="geometry" />
        </mxCell>
        <mxCell id="dWs-uhoI-c1moSIp1UjA-6" value="" style="rounded=0;whiteSpace=wrap;html=1;" vertex="1" parent="1">
          <mxGeometry x="380" y="455" width="10" height="10" as="geometry" />
        </mxCell>
        <mxCell id="dWs-uhoI-c1moSIp1UjA-9" value="" style="shape=table;startSize=0;container=1;collapsible=0;childLayout=tableLayout;" vertex="1" parent="1">
          <mxGeometry x="348" y="520" width="75" height="50" as="geometry" />
        </mxCell>
        <mxCell id="dWs-uhoI-c1moSIp1UjA-10" value="" style="shape=tableRow;horizontal=0;startSize=0;swimlaneHead=0;swimlaneBody=0;top=0;left=0;bottom=0;right=0;collapsible=0;dropTarget=0;fillColor=none;points=[[0,0.5],[1,0.5]];portConstraint=eastwest;" vertex="1" parent="dWs-uhoI-c1moSIp1UjA-9">
          <mxGeometry width="75" height="25" as="geometry" />
        </mxCell>
        <mxCell id="dWs-uhoI-c1moSIp1UjA-11" value="-0.1" style="shape=partialRectangle;html=1;whiteSpace=wrap;connectable=0;overflow=hidden;fillColor=none;top=0;left=0;bottom=0;right=0;pointerEvents=1;" vertex="1" parent="dWs-uhoI-c1moSIp1UjA-10">
          <mxGeometry width="38" height="25" as="geometry">
            <mxRectangle width="38" height="25" as="alternateBounds" />
          </mxGeometry>
        </mxCell>
        <mxCell id="dWs-uhoI-c1moSIp1UjA-12" value="0.3" style="shape=partialRectangle;html=1;whiteSpace=wrap;connectable=0;overflow=hidden;fillColor=none;top=0;left=0;bottom=0;right=0;pointerEvents=1;" vertex="1" parent="dWs-uhoI-c1moSIp1UjA-10">
          <mxGeometry x="38" width="37" height="25" as="geometry">
            <mxRectangle width="37" height="25" as="alternateBounds" />
          </mxGeometry>
        </mxCell>
        <mxCell id="dWs-uhoI-c1moSIp1UjA-13" value="" style="shape=tableRow;horizontal=0;startSize=0;swimlaneHead=0;swimlaneBody=0;top=0;left=0;bottom=0;right=0;collapsible=0;dropTarget=0;fillColor=none;points=[[0,0.5],[1,0.5]];portConstraint=eastwest;" vertex="1" parent="dWs-uhoI-c1moSIp1UjA-9">
          <mxGeometry y="25" width="75" height="25" as="geometry" />
        </mxCell>
        <mxCell id="dWs-uhoI-c1moSIp1UjA-14" value="0.2" style="shape=partialRectangle;html=1;whiteSpace=wrap;connectable=0;overflow=hidden;fillColor=none;top=0;left=0;bottom=0;right=0;pointerEvents=1;" vertex="1" parent="dWs-uhoI-c1moSIp1UjA-13">
          <mxGeometry width="38" height="25" as="geometry">
            <mxRectangle width="38" height="25" as="alternateBounds" />
          </mxGeometry>
        </mxCell>
        <mxCell id="dWs-uhoI-c1moSIp1UjA-15" value="0.1" style="shape=partialRectangle;html=1;whiteSpace=wrap;connectable=0;overflow=hidden;fillColor=none;top=0;left=0;bottom=0;right=0;pointerEvents=1;" vertex="1" parent="dWs-uhoI-c1moSIp1UjA-13">
          <mxGeometry x="38" width="37" height="25" as="geometry">
            <mxRectangle width="37" height="25" as="alternateBounds" />
          </mxGeometry>
        </mxCell>
      </root>
    </mxGraphModel>
  </diagram>
</mxfile>
